<svg width="248" height="88" viewBox="0 0 248 88" fill="none" xmlns="http://www.w3.org/2000/svg">
<rect width="248" height="88" fill="#F5F5F5"/>
<path d="M61.8 44C63.015 44 64.0125 44.988 63.8792 46.1957C63.42 50.3535 61.6652 54.2835 58.8349 57.4136C55.5105 61.0903 50.9392 63.4015 46.0075 63.899C41.0758 64.3965 36.135 63.045 32.1432 60.1064C28.1514 57.1678 25.3931 52.8516 24.403 47.9947C23.413 43.1378 24.2618 38.0863 26.7848 33.8197C29.3079 29.5532 33.3254 26.3755 38.0584 24.9029C42.7914 23.4304 47.9026 23.7679 52.4009 25.8499C56.2305 27.6225 59.3836 30.552 61.4336 34.1984C62.029 35.2575 61.4978 36.5571 60.3798 37.0327C59.2617 37.5083 57.9825 36.9767 57.3545 35.9366C55.7545 33.2866 53.392 31.1571 50.5527 29.8429C47.044 28.2189 43.0573 27.9557 39.3656 29.1043C35.6738 30.2529 32.5401 32.7315 30.5722 36.0594C28.6042 39.3873 27.9421 43.3275 28.7143 47.1159C29.4866 50.9043 31.6381 54.2709 34.7517 56.563C37.8653 58.8551 41.7191 59.9093 45.5658 59.5212C49.4126 59.1331 52.9782 57.3304 55.5712 54.4626C57.6696 52.1419 59.0101 49.2576 59.4452 46.1928C59.6159 44.9898 60.585 44 61.8 44Z" fill="#534FEB"/>
<path d="M44 33.32C44 32.591 43.4072 31.9925 42.6826 32.0725C40.8784 32.2718 39.1368 32.8786 37.5924 33.854C35.6746 35.0651 34.1394 36.7949 33.1646 38.843C32.1899 40.891 31.8155 43.1733 32.085 45.4255C32.3019 47.2392 32.9293 48.9734 33.9125 50.4994C34.3073 51.1122 35.1456 51.1948 35.7114 50.7351C36.2772 50.2753 36.3539 49.4478 35.9782 48.823C35.2994 47.6939 34.8639 46.4298 34.7063 45.1119C34.4961 43.3552 34.7881 41.575 35.5484 39.9775C36.3087 38.38 37.5062 37.0308 39.002 36.0861C40.1243 35.3773 41.38 34.9181 42.6844 34.7329C43.4061 34.6304 44 34.049 44 33.32Z" fill="#534FEB"/>
<path d="M49.748 39.7982C50.1403 39.5114 50.2292 38.9569 49.9011 38.5984C49.084 37.7058 48.0722 37.0072 46.9397 36.5597C45.5333 36.004 43.9983 35.8583 42.5126 36.1395C41.0269 36.4206 39.6512 37.1171 38.5451 38.1481C37.6544 38.9785 36.9678 39.9984 36.5333 41.1279C36.3588 41.5815 36.6442 42.0652 37.1142 42.1888C37.5842 42.3124 38.0598 42.0282 38.2483 41.5802C38.5889 40.7706 39.0979 40.0389 39.7452 39.4355C40.6079 38.6313 41.6809 38.0881 42.8398 37.8688C43.9987 37.6495 45.196 37.7632 46.2929 38.1966C47.1159 38.5217 47.8571 39.0169 48.4699 39.646C48.8091 39.9941 49.3556 40.085 49.748 39.7982Z" fill="#534FEB"/>
<path d="M77.7578 36.0352L79.8184 35.9375L79.8965 43.7598L88.5 43.3398L88.4023 36.084L90.5801 36.2402L90.6973 49.6582L88.5977 49.8242L88.5391 45.1562L79.916 45.5371L79.9844 49.9219L77.9434 50L77.7578 36.0352ZM105.922 41.2207C105.902 41.722 105.801 42.181 105.619 42.5977C105.437 43.0143 105.196 43.3887 104.896 43.7207C104.597 44.0592 104.249 44.362 103.852 44.6289C103.454 44.8893 103.031 45.1139 102.582 45.3027L105.424 49.7754L103.402 50.4395L100.668 45.8789C100.355 45.9375 100.03 45.9863 99.6914 46.0254C99.3594 46.0645 98.9915 46.084 98.5879 46.084C98.2624 46.084 97.9043 46.071 97.5137 46.0449C97.1296 46.0124 96.7259 45.957 96.3027 45.8789L96.3418 50.0195L94.2812 50.0977V36.2793C94.8411 36.11 95.401 35.9831 95.9609 35.8984C96.5208 35.8138 97.0319 35.7487 97.4941 35.7031C98.0345 35.651 98.5521 35.6217 99.0469 35.6152C99.4701 35.6152 99.9388 35.6445 100.453 35.7031C100.967 35.7617 101.482 35.8659 101.996 36.0156C102.517 36.1654 103.021 36.3737 103.51 36.6406C103.992 36.9076 104.418 37.2461 104.789 37.6562C105.154 38.0729 105.44 38.5742 105.648 39.1602C105.857 39.7461 105.948 40.4329 105.922 41.2207ZM99.0469 37.5781C98.8971 37.5781 98.7441 37.5814 98.5879 37.5879C98.4382 37.5944 98.2819 37.6042 98.1191 37.6172C97.8457 37.6367 97.543 37.666 97.2109 37.7051C96.8789 37.7376 96.5566 37.7897 96.2441 37.8613L96.2832 44.082C96.5892 44.1406 96.8952 44.1829 97.2012 44.209C97.5137 44.2285 97.8164 44.2383 98.1094 44.2383C98.8906 44.2383 99.6296 44.1504 100.326 43.9746C101.029 43.7923 101.645 43.5449 102.172 43.2324C102.699 42.9199 103.119 42.5521 103.432 42.1289C103.744 41.6992 103.9 41.237 103.9 40.7422C103.9 40.2409 103.78 39.7949 103.539 39.4043C103.305 39.0137 102.973 38.6816 102.543 38.4082C101.658 37.8548 100.492 37.5781 99.0469 37.5781ZM110.482 49.4434C110.482 49.7819 110.359 50.0716 110.111 50.3125C109.87 50.5599 109.581 50.6836 109.242 50.6836C108.897 50.6836 108.601 50.5599 108.354 50.3125C108.106 50.0716 107.982 49.7819 107.982 49.4434C107.982 49.0918 108.103 48.7956 108.344 48.5547C108.591 48.3073 108.891 48.1836 109.242 48.1836C109.587 48.1836 109.88 48.3073 110.121 48.5547C110.362 48.8021 110.482 49.0983 110.482 49.4434ZM122.787 46.2793C122.787 46.5723 122.758 46.875 122.699 47.1875C122.569 47.8451 122.253 48.444 121.752 48.9844C121.492 49.2578 121.166 49.4954 120.775 49.6973C120.378 49.9056 119.91 50.0651 119.369 50.1758C118.829 50.293 118.201 50.3483 117.484 50.3418C116.736 50.2962 116.026 50.1237 115.355 49.8242C115.069 49.7005 114.783 49.5443 114.496 49.3555C114.21 49.1602 113.933 48.9258 113.666 48.6523C113.406 48.3789 113.165 48.0566 112.943 47.6855C112.722 47.3145 112.543 46.8848 112.406 46.3965L114.418 45.8594C114.529 46.3607 114.753 46.8132 115.092 47.2168C115.437 47.6139 115.831 47.9329 116.273 48.1738C116.716 48.4147 117.139 48.5514 117.543 48.584C117.882 48.6035 118.24 48.5872 118.617 48.5352C118.995 48.4831 119.343 48.3724 119.662 48.2031C119.981 48.0339 120.248 47.7995 120.463 47.5C120.684 47.194 120.805 46.8001 120.824 46.3184C120.837 45.9277 120.795 45.5957 120.697 45.3223C120.495 44.7754 120.154 44.375 119.672 44.1211C119.451 43.9909 119.226 43.8932 118.998 43.8281C118.777 43.7565 118.562 43.7109 118.354 43.6914C118.145 43.6719 117.976 43.6686 117.846 43.6816C117.768 43.6816 117.683 43.6816 117.592 43.6816C117.507 43.6816 117.416 43.6849 117.318 43.6914C116.947 43.7044 116.508 43.7337 116 43.7793L116.02 42.041C116.273 42.0605 116.501 42.0768 116.703 42.0898C116.911 42.0964 117.09 42.1029 117.24 42.1094C117.325 42.1159 117.406 42.1191 117.484 42.1191C117.562 42.1191 117.634 42.1191 117.699 42.1191C118.083 42.1387 118.425 42.1094 118.725 42.0312C119.031 41.9531 119.298 41.8424 119.525 41.6992C119.753 41.556 119.952 41.39 120.121 41.2012C120.355 40.9408 120.535 40.6641 120.658 40.3711C120.782 40.0716 120.844 39.7949 120.844 39.541C120.844 39.3197 120.805 39.0755 120.727 38.8086C120.648 38.5417 120.505 38.291 120.297 38.0566C120.089 37.8223 119.799 37.627 119.428 37.4707C119.057 37.3145 118.575 37.2363 117.982 37.2363C117.442 37.2689 116.96 37.3796 116.537 37.5684C116.12 37.7572 115.762 38.0371 115.463 38.4082C115.163 38.7728 114.997 39.2643 114.965 39.8828L113.158 39.6582C113.308 39.0723 113.487 38.5775 113.695 38.1738C114.105 37.3535 114.61 36.7546 115.209 36.377C115.482 36.1947 115.779 36.0482 116.098 35.9375C116.404 35.8268 116.706 35.7487 117.006 35.7031C117.312 35.6576 117.611 35.6283 117.904 35.6152C118.067 35.6087 118.236 35.612 118.412 35.625C118.588 35.6315 118.767 35.6413 118.949 35.6543C119.314 35.6868 119.675 35.7552 120.033 35.8594C120.391 35.957 120.733 36.1003 121.059 36.2891C121.378 36.4714 121.667 36.709 121.928 37.002C122.175 37.2949 122.37 37.6465 122.514 38.0566C122.663 38.4603 122.738 38.9355 122.738 39.4824C122.706 39.9902 122.608 40.4622 122.445 40.8984C122.283 41.3216 122.032 41.7155 121.693 42.0801C121.355 42.4447 120.912 42.7246 120.365 42.9199C121.14 43.1803 121.736 43.6296 122.152 44.2676C122.576 44.8991 122.787 45.5697 122.787 46.2793ZM135.766 45.1758C135.805 45.5339 135.805 45.9082 135.766 46.2988C135.72 46.696 135.626 47.0898 135.482 47.4805C135.346 47.8646 135.154 48.2324 134.906 48.584C134.665 48.9355 134.359 49.248 133.988 49.5215C133.617 49.7949 133.181 50.0098 132.68 50.166C132.185 50.3288 131.615 50.4134 130.971 50.4199C130.294 50.4264 129.672 50.3418 129.105 50.166C127.992 49.821 127.094 49.2057 126.41 48.3203C126.091 47.9036 125.814 47.4382 125.58 46.9238C125.131 45.9082 124.906 44.834 124.906 43.7012C124.9 43.3952 124.91 43.0924 124.936 42.793C124.968 42.487 125.01 42.181 125.062 41.875C125.173 41.2695 125.336 40.6868 125.551 40.127C125.772 39.5605 126.052 39.0299 126.391 38.5352C126.742 38.0339 127.136 37.6074 127.572 37.2559C128.021 36.8913 128.526 36.6048 129.086 36.3965C129.652 36.1816 130.274 36.071 130.951 36.0645C131.589 36.0775 132.175 36.1621 132.709 36.3184C133.23 36.4811 133.725 36.7122 134.193 37.0117C134.662 37.3047 135.046 37.7344 135.346 38.3008L133.949 39.2773C133.754 38.8737 133.484 38.5612 133.139 38.3398C132.794 38.112 132.449 37.9492 132.104 37.8516C131.693 37.7409 131.29 37.6888 130.893 37.6953C130.248 37.7344 129.669 37.9167 129.154 38.2422C128.646 38.5677 128.214 38.9941 127.855 39.5215C127.12 40.6087 126.752 41.9336 126.752 43.4961V43.7988C127.188 43.0111 127.81 42.373 128.617 41.8848C129.008 41.6504 129.428 41.4681 129.877 41.3379C130.326 41.2077 130.785 41.1426 131.254 41.1426C131.911 41.1426 132.507 41.2533 133.041 41.4746C133.575 41.696 134.034 41.9922 134.418 42.3633C134.802 42.7344 135.108 43.1641 135.336 43.6523C135.57 44.1406 135.714 44.6484 135.766 45.1758ZM130.814 42.8223C130.326 42.8939 129.87 43.0729 129.447 43.3594C129.265 43.4831 129.076 43.6361 128.881 43.8184C128.692 44.0007 128.513 44.2253 128.344 44.4922C128.168 44.7526 128.005 45.0618 127.855 45.4199C127.712 45.7715 127.592 46.1719 127.494 46.6211C127.865 47.2852 128.34 47.8092 128.92 48.1934C129.499 48.571 130.163 48.7598 130.912 48.7598C131.316 48.7598 131.674 48.7109 131.986 48.6133C132.292 48.5156 132.556 48.3854 132.777 48.2227C133.005 48.0534 133.191 47.8613 133.334 47.6465C133.464 47.4512 133.578 47.2266 133.676 46.9727C133.76 46.7383 133.819 46.5039 133.852 46.2695C133.884 46.0286 133.897 45.804 133.891 45.5957C133.858 44.7624 133.562 44.0788 133.002 43.5449C132.729 43.2975 132.406 43.1087 132.035 42.9785C131.664 42.8483 131.257 42.7962 130.814 42.8223ZM149.828 43.0762C149.828 43.7858 149.757 44.4564 149.613 45.0879C149.333 46.3639 148.812 47.4772 148.051 48.4277C147.66 48.9095 147.247 49.3034 146.811 49.6094C146.355 49.9414 145.863 50.1953 145.336 50.3711C144.815 50.5534 144.271 50.6445 143.705 50.6445C143.119 50.6445 142.562 50.5566 142.035 50.3809C140.98 50.0228 140.082 49.3717 139.34 48.4277C138.975 47.9655 138.666 47.4544 138.412 46.8945C138.152 46.3346 137.95 45.7324 137.807 45.0879C137.67 44.4434 137.602 43.7728 137.602 43.0762C137.602 42.3796 137.67 41.709 137.807 41.0645C138.08 39.7689 138.585 38.6556 139.32 37.7246C139.685 37.2624 140.092 36.8685 140.541 36.543C140.99 36.2174 141.482 35.9668 142.016 35.791C142.549 35.6087 143.113 35.5176 143.705 35.5176C144.33 35.5176 144.91 35.6055 145.443 35.7812C146.531 36.1458 147.436 36.7936 148.158 37.7246C148.516 38.1738 148.819 38.6849 149.066 39.2578C149.574 40.4036 149.828 41.6764 149.828 43.0762ZM147.885 43.0762C147.885 42.3014 147.79 41.5755 147.602 40.8984C147.419 40.2148 147.146 39.6191 146.781 39.1113C146.423 38.6035 145.984 38.2031 145.463 37.9102C144.942 37.6107 144.356 37.4609 143.705 37.4609C143.067 37.4609 142.494 37.6107 141.986 37.9102C141.479 38.2031 141.042 38.6035 140.678 39.1113C140.32 39.6191 140.04 40.2148 139.838 40.8984C139.643 41.5755 139.545 42.3014 139.545 43.0762C139.545 44.6712 139.926 45.9961 140.688 47.0508C141.052 47.5586 141.488 47.9622 141.996 48.2617C142.51 48.5547 143.08 48.7012 143.705 48.7012C144.337 48.7012 144.91 48.5547 145.424 48.2617C145.938 47.9622 146.378 47.5586 146.742 47.0508C147.504 45.9961 147.885 44.6712 147.885 43.0762Z" fill="black"/>
</svg>
